HIERARCHY
ROOT Hips
{
	OFFSET	0.00	0.00	0.00
	CHANNELS 6 Xposition Yposition Zposition Zrotation Xrotation Yrotation
	JOINT LeftUpLeg
	{
		OFFSET	 0.126116	-0.014019	-0.065224
		CHANNELS 3 Zrotation Xrotation Yrotation
		JOINT LeftLeg
		{
			OFFSET	 0.000000	 0.000000	 0.569914
			CHANNELS 3 Zrotation Xrotation Yrotation
			JOINT LeftFoot
			{
				OFFSET	 0.000000	 0.000000	 0.544423
				CHANNELS 3 Zrotation Xrotation Yrotation
				JOINT LeftToeBase
				{
					OFFSET	 0.000000	 0.000000	 0.207117
					CHANNELS 3 Zrotation Xrotation Yrotation
					End Site
					{
						OFFSET	 0.000000	 0.000000	 0.207117
					}
				}
			}
		}
	}
	JOINT RightUpLeg
	{
		OFFSET	-0.124023	-0.008373	-0.065224
		CHANNELS 3 Zrotation Xrotation Yrotation
		JOINT RightLeg
		{
			OFFSET	 0.000000	 0.000000	 0.570047
			CHANNELS 3 Zrotation Xrotation Yrotation
			JOINT RightFoot
			{
				OFFSET	 0.000000	 0.000000	 0.544354
				CHANNELS 3 Zrotation Xrotation Yrotation
				JOINT RightToeBase
				{
					OFFSET	 0.000000	 0.000000	 0.207540
					CHANNELS 3 Zrotation Xrotation Yrotation
					End Site
					{
						OFFSET	 0.000000	 0.000000	 0.207540
					}
				}
			}
		}
	}
	JOINT Spine
	{
		OFFSET	 0.000184	-0.007763	 0.117403
		CHANNELS 3 Zrotation Xrotation Yrotation
		JOINT Spine1
		{
			OFFSET	 0.000000	 0.000000	 0.137269
			CHANNELS 3 Zrotation Xrotation Yrotation
			JOINT Spine2
			{
				OFFSET	 0.000000	 0.000000	 0.156879
				CHANNELS 3 Zrotation Xrotation Yrotation
				JOINT LeftShoulder
				{
					OFFSET	 0.080501	-0.002496	 0.160144
					CHANNELS 3 Zrotation Xrotation Yrotation
					JOINT LeftArm
					{
						OFFSET	 0.000000	 0.000000	 0.164363
						CHANNELS 3 Zrotation Xrotation Yrotation
						JOINT LeftForeArm
						{
							OFFSET	 0.000000	 0.000000	 0.364576
							CHANNELS 3 Zrotation Xrotation Yrotation
							JOINT LeftHand
							{
								OFFSET	 0.000000	 0.000000	 0.360812
								CHANNELS 3 Zrotation Xrotation Yrotation
								JOINT LeftHandIndex1
								{
									OFFSET	 0.000000	 0.000000	 0.086006
									CHANNELS 3 Zrotation Xrotation Yrotation
									JOINT LeftHandIndex2
									{
										OFFSET	 0.000000	 0.000000	 0.047236
										CHANNELS 3 Zrotation Xrotation Yrotation
										JOINT LeftHandIndex3
										{
											OFFSET	-0.004284	-0.000551	 0.038166
											CHANNELS 3 Zrotation Xrotation Yrotation
											End Site
											{
												OFFSET	-0.004284	-0.000551	 0.038166
											}
										}
									}
								}
							}
						}
					}
				}
				JOINT Neck
				{
					OFFSET	 0.000000	 0.000000	 0.176489
					CHANNELS 3 Zrotation Xrotation Yrotation
					JOINT Head
					{
						OFFSET	 0.000000	-0.001747	 0.077940
						CHANNELS 3 Zrotation Xrotation Yrotation
						End Site
						{
							OFFSET	 0.000000	-0.001747	 0.077940
						}
					}
				}
				JOINT RightShoulder
				{
					OFFSET	-0.080363	 0.000306	 0.159706
					CHANNELS 3 Zrotation Xrotation Yrotation
					JOINT RightArm
					{
						OFFSET	 0.000000	 0.000000	 0.164196
						CHANNELS 3 Zrotation Xrotation Yrotation
						JOINT RightForeArm
						{
							OFFSET	 0.000000	 0.000000	 0.365611
							CHANNELS 3 Zrotation Xrotation Yrotation
							JOINT RightHand
							{
								OFFSET	 0.000000	 0.000000	 0.360648
								CHANNELS 3 Zrotation Xrotation Yrotation
								JOINT RightHandIndex1
								{
									OFFSET	 0.000000	 0.000000	 0.069977
									CHANNELS 3 Zrotation Xrotation Yrotation
									JOINT RightHandIndex2
									{
										OFFSET	 0.000000	 0.000000	 0.052305
										CHANNELS 3 Zrotation Xrotation Yrotation
										JOINT RightHandIndex3
										{
											OFFSET	 0.009002	-0.000782	 0.042196
											CHANNELS 3 Zrotation Xrotation Yrotation
											End Site
											{
												OFFSET	 0.009002	-0.000782	 0.042196
											}
										}
									}
								}
							}
						}
					}
				}
			}
		}
	}
}
MOTION
Frames:    8
Frame Time: 0.03333334
-0.035391	 0.240182	 1.055466	 0.521198	 33.406540	-6.458310	 44.283880	-78.608730	-142.705900	 5.797870	-69.334100	 5.817375	 32.748730	 75.390700	-40.952420	-2.385832	 28.452790	-0.000001	 43.410530	-82.385930	-136.269500	-15.384800	-71.334120	-9.710524	-3.769142	 73.687600	 23.093080	 2.384659	 28.388700	-0.000001	 25.060190	 14.324090	 2.090337	-3.097559	 19.315650	 4.530180	 2.583455	 0.190168	 1.092395	-99.131490	 68.197880	 156.892000	 1.587096	-9.907875	-51.759040	-1.699162	-0.434091	-4.928113	-14.197980	-64.495520	-4.445886	-2.027600	 6.559038	 9.033609	-5.188889	 0.308190	 3.541030	-5.234859	 0.342567	 0.430617	 0.285136	 17.218200	-5.831511	 4.758498	-26.449150	 1.375697	 97.433420	 64.621670	-159.275300	-12.231250	 8.138653	 70.341310	-13.160080	-1.499638	 14.336450	-7.633553	-62.488950	-3.813487	 1.803333	 3.979147	-15.098590	 4.898592	 3.004813	-9.310344	 5.224449	 0.395017	 2.014677
-0.031652	 0.238844	 1.080995	 0.469908	 31.621970	-5.870475	 34.699130	-75.040270	-152.431800	 4.616789	-65.615330	 4.586340	 29.744290	 74.014590	-37.758240	-2.385832	 28.452790	-0.000001	 21.433930	-79.265820	-157.162200	-14.081290	-67.580720	-8.269402	-3.348685	 72.393600	 22.586360	 2.384659	 28.388700	-0.000001	 21.824490	 13.831320	 1.838554	-2.858258	 19.708290	 4.040844	 2.493085	-1.175706	 0.807947	-98.513170	 68.746370	 157.985900	 2.275242	-6.123620	-52.872900	 2.697525	-1.267492	-7.486945	-10.814190	-64.103270	-1.583326	-2.027600	 6.559038	 9.033609	-5.188889	 0.308190	 3.541030	-5.234859	 0.342567	 0.430617	-0.485343	 11.291980	-4.127575	 4.014546	-20.666410	 0.065130	 97.092340	 64.129940	-160.608700	-13.642920	 7.991313	 66.046250	-15.603750	-4.024435	 25.181760	-10.094220	-61.579770	-4.279433	 1.803333	 3.979147	-15.098590	 4.898592	 3.004813	-9.310344	 5.224449	 0.395017	 2.014677
-0.027091	 0.236135	 1.109012	 0.473600	 29.523620	-5.156157	 28.209790	-70.641460	-159.169400	 3.811856	-61.471100	 3.716513	 26.991240	 72.547870	-34.721200	-2.385833	 28.452750	 0.000004	 8.720089	-74.770710	-168.655500	-13.240690	-63.409280	-7.247870	-2.567889	 71.091380	 21.728920	 2.384659	 28.388700	-0.000001	 17.169380	 13.192360	 1.551300	-2.695359	 20.046610	 3.633117	 2.360816	-2.957448	 0.442722	-97.291040	 70.455870	 159.261600	 3.430351	-1.049568	-54.202670	 7.176441	-2.441667	-9.925878	-9.627800	-61.715340	-2.064012	-2.027600	 6.559038	 9.033609	-5.188889	 0.308190	 3.541030	-5.234859	 0.342567	 0.430617	-1.015269	 3.308176	-2.446986	 3.350381	-13.000600	-1.415172	 96.602660	 64.369890	-161.675600	-15.665270	 9.346300	 62.654620	-18.170520	-7.650166	 34.324580	-12.233490	-57.898480	-3.439910	 1.803333	 3.979147	-15.098590	 4.898592	 3.004813	-9.310344	 5.224449	 0.395017	 2.014677
-0.022601	 0.233176	 1.135028	 0.498440	 27.405610	-4.274210	 24.060050	-66.287350	-163.756300	 3.643010	-57.560910	 3.427758	 24.703210	 71.230000	-32.256660	-2.385833	 28.452750	 0.000004	 1.319155	-70.020650	-174.933600	-12.832950	-59.374250	-6.624775	-1.774380	 70.008060	 20.985040	 2.384659	 28.388700	-0.000001	 11.859130	 12.717210	 1.239984	-2.526720	 20.588650	 3.133255	 2.282096	-4.948501	 0.251322	-95.032650	 74.088170	 160.288900	 4.745740	 5.249350	-56.550170	 11.210540	-3.741332	-11.959400	-9.327963	-57.940090	-3.946903	-2.027600	 6.559038	 9.033609	-5.188889	 0.308190	 3.541030	-5.234859	 0.342567	 0.430617	-1.355820	-5.028913	-2.174098	 3.188272	-4.949232	-1.789310	 95.430110	 66.622730	-162.871800	-17.876210	 12.885560	 61.987140	-20.278270	-11.575930	 41.066010	-13.680590	-53.705120	-2.039237	 1.803333	 3.979147	-15.098590	 4.898592	 3.004813	-9.310344	 5.224449	 0.395017	 2.014677
-0.018322	 0.227073	 1.165165	 0.861337	 24.906580	-3.427640	 20.446490	-60.897250	-167.746400	 3.688940	-52.762060	 3.289929	 21.668150	 69.548480	-29.053130	-2.385833	 28.452750	 0.000004	-4.140764	-64.057940	-178.941700	-10.788960	-54.568440	-4.602702	-1.823377	 68.832160	 20.046280	 2.384659	 28.388700	-0.000001	 5.023176	 11.917980	 0.885582	-2.350184	 20.981110	 2.494374	 2.231622	-7.392898	 0.052763	-93.244620	 76.548110	 161.805100	 7.069067	 10.508950	-59.036960	 15.550790	-5.350065	-13.944360	-8.111173	-51.871060	-7.453960	-2.027600	 6.559038	 9.033609	-5.188889	 0.308190	 3.541030	-5.234859	 0.342567	 0.430617	-1.667148	-13.445290	-2.093677	 3.122166	 3.089449	-2.063660	 94.182880	 68.993060	-164.253700	-20.684480	 16.659370	 61.043770	-21.489650	-16.335370	 48.467240	-15.142350	-47.110570	 0.320202	 1.803333	 3.979147	-15.098590	 4.898592	 3.004813	-9.310344	 5.224449	 0.395017	 2.014677
-0.015341	 0.218744	 1.191549	 1.583746	 23.168570	-2.902896	 18.427210	-56.208680	-169.923800	 3.675765	-48.134340	 3.049904	 19.253470	 67.869350	-26.305310	-2.385833	 28.452750	 0.000004	-7.551503	-58.919550	 179.134700	-9.022714	-50.013580	-2.971984	-1.576214	 67.428310	 18.766530	 2.384659	 28.388700	-0.000001	-1.121285	 10.517150	 0.442238	-2.179016	 20.818530	 1.907302	 2.204670	-9.429639	-0.241040	-94.128430	 74.663600	 163.928500	 9.084143	 11.772840	-59.287850	 18.972290	-6.727391	-15.347010	-5.441082	-45.234950	-10.579650	-2.027600	 6.559038	 9.033609	-5.188889	 0.308190	 3.541030	-5.234859	 0.342567	 0.430617	-1.720062	-14.901420	-0.992904	 3.140792	 4.633803	-2.623322	 93.883650	 68.721170	-165.643100	-22.723660	 18.711110	 58.108460	-21.428100	-20.484370	 55.035570	-16.388000	-40.008490	 3.207671	 1.803333	 3.979147	-15.098590	 4.898592	 3.004813	-9.310344	 5.224449	 0.395017	 2.014677
-0.013494	 0.207286	 1.216641	 2.248158	 21.221120	-2.129151	 16.229550	-51.026790	-172.453800	 3.566154	-43.343930	 2.735956	 16.411880	 66.233090	-22.901110	-2.385833	 28.452750	 0.000004	-10.449780	-53.052390	 177.652800	-7.326129	-45.265200	-1.548873	-1.616402	 66.337460	 17.401080	 2.384659	 28.388700	-0.000001	-8.183003	 8.847852	 0.156682	-1.829062	 20.298650	 1.273529	 2.108476	-11.511060	-0.463266	-94.671120	 72.687980	 165.941000	 11.517260	 12.535580	-59.346260	 22.369840	-8.129943	-16.570100	-1.616601	-36.969360	-12.441980	-2.027600	 6.559038	 9.033609	-5.188889	 0.308190	 3.541030	-5.234859	 0.342567	 0.430617	-1.835008	-15.197960	-0.813783	 3.232137	 5.390984	-2.481501	 93.996940	 65.966550	-167.680800	-24.892720	 19.113430	 55.479710	-20.953240	-24.331660	 60.550200	-17.833870	-31.445610	 6.619302	 1.803333	 3.979147	-15.098590	 4.898592	 3.004813	-9.310344	 5.224449	 0.395017	 2.014677
-0.012422	 0.193818	 1.235557	 2.819890	 18.938950	-1.122746	 14.383340	-45.916700	-174.989600	 3.386677	-39.521710	 2.422374	 14.441700	 65.446950	-20.053110	-2.385833	 28.452750	 0.000004	-12.465080	-46.986890	 176.707800	-5.716633	-41.212490	-0.375784	-1.648664	 66.191520	 15.849120	 2.384659	 28.388700	-0.000001	-15.034910	 7.360088	-0.183896	-1.610703	 19.389820	 0.627869	 2.058503	-12.898090	-0.645449	-94.802730	 71.079520	 167.828100	 13.539390	 13.211560	-59.622700	 25.256370	-9.290745	-17.459670	 1.308666	-28.872870	-13.720790	-2.027600	 6.559038	 9.033609	-5.188889	 0.308190	 3.541030	-5.234859	 0.342567	 0.430617	-1.864878	-14.531010	-0.639328	 3.258627	 5.482399	-2.487427	 93.698420	 64.421190	-169.429500	-27.241940	 20.403330	 55.112790	-21.019050	-27.308990	 63.494080	-18.792480	-23.834200	 9.415324	 1.803333	 3.979147	-15.098590	 4.898592	 3.004813	-9.310344	 5.224449	 0.395017	 2.014677
